<svg id="Component_2_41" data-name="Component 2 – 41" xmlns="http://www.w3.org/2000/svg" width="24" height="24" viewBox="0 0 24 24">
  <rect id="Rectangle_121" data-name="Rectangle 121" width="24" height="24" fill="rgba(255,255,255,0)"/>
  <g id="Bag" transform="translate(2.5 2)">
    <path id="Path_39" data-name="Path 39" d="M7.732,22.094H16.5c3.221,0,5.692-1.152,4.991-5.791l-.817-6.286c-.433-2.314-1.923-3.2-3.231-3.2H6.752c-1.327,0-2.731.952-3.231,3.2L2.7,16.3C2.107,20.418,4.511,22.094,7.732,22.094Z" transform="translate(-2.612 -2.094)" fill="none" stroke="#fff" stroke-linecap="round" stroke-linejoin="round" stroke-width="2"/>
    <path id="Path_40" data-name="Path 40" d="M7.349,6.773a4.5,4.5,0,0,1,4.5-4.5h0a4.5,4.5,0,0,1,4.514,4.5h0m-7.6,4.686h.048m6.019,0h.048" transform="translate(-2.33 -2.278)" fill="none" stroke="#fff" stroke-linecap="round" stroke-linejoin="round" stroke-width="2"/>
  </g>
</svg>
