<svg xmlns="http://www.w3.org/2000/svg" width="21.003" height="22" viewBox="0 0 21.003 22">
  <g id="Bag" transform="translate(-1.608 -1.278)">
    <path id="Path_39" data-name="Path 39" d="M7.732,22.094H16.5c3.221,0,5.692-1.152,4.991-5.791l-.817-6.286c-.433-2.314-1.923-3.2-3.231-3.2H6.752c-1.327,0-2.731.952-3.231,3.2L2.7,16.3C2.107,20.418,4.511,22.094,7.732,22.094Z" transform="translate(0 0.184)" fill="none" stroke="#171717" stroke-linecap="round" stroke-linejoin="round" stroke-width="2"/>
    <path id="Path_40" data-name="Path 40" d="M7.349,6.773a4.5,4.5,0,0,1,4.5-4.5h0a4.5,4.5,0,0,1,4.514,4.5h0m-7.6,4.686h.048m6.019,0h.048" transform="translate(0.283)" fill="none" stroke="#171717" stroke-linecap="round" stroke-linejoin="round" stroke-width="2"/>
  </g>
</svg>
