<svg xmlns="http://www.w3.org/2000/svg" width="26" height="26" viewBox="0 0 26 26">
  <g id="Group_15701" data-name="Group 15701" transform="translate(-1128 -439)">
    <rect id="Rectangle_746" data-name="Rectangle 746" width="26" height="26" transform="translate(1128 439)" fill="rgba(255,255,255,0)"/>
    <g id="tik-tok" transform="translate(1101.201 440)">
      <g id="Group_15700" data-name="Group 15700" transform="translate(32.345 1.992)">
        <path id="Path_10308" data-name="Path 10308" d="M112.433,212.2a3.1,3.1,0,0,0-1.609,5.769,3.049,3.049,0,0,1-.5-1.627,3.121,3.121,0,0,1,3.141-3.15,3.244,3.244,0,0,1,.988.155v-3.473a6.831,6.831,0,0,0-.988-.073h-.047v2.554A3.244,3.244,0,0,0,112.433,212.2Z" transform="translate(-108.408 -201.784)" fill="#f00044"/>
        <path id="Path_10309" data-name="Path 10309" d="M337.123,24H336.2a5.305,5.305,0,0,0,2.006,3.2A5.344,5.344,0,0,1,337.123,24Z" transform="translate(-325.113 -24)" fill="#f00044"/>
        <path id="Path_10310" data-name="Path 10310" d="M106.254,144.395a5.74,5.74,0,0,1-1.026-.095v2.49a9.111,9.111,0,0,1-3.5-.686,9.216,9.216,0,0,1-1.99-1.122l.018,7.676a6.318,6.318,0,0,1-1.99,4.565,6.857,6.857,0,0,1-3.784,1.829,7.3,7.3,0,0,1-1.022.073,6.928,6.928,0,0,1-4.163-1.363,5.924,5.924,0,0,0,.433.453,6.921,6.921,0,0,0,4.805,1.9,7.3,7.3,0,0,0,1.022-.073,6.857,6.857,0,0,0,3.784-1.829,6.319,6.319,0,0,0,1.99-4.565l-.067-7.676a8.839,8.839,0,0,0,1.99,1.122,9.226,9.226,0,0,0,3.5.686" transform="translate(-88.8 -139.11)" fill="#f00044"/>
      </g>
      <path id="Path_10311" data-name="Path 10311" d="M32.751,189.7a6.566,6.566,0,0,1,4.608-1.911v-.919a6.828,6.828,0,0,0-.988-.073,6.56,6.56,0,0,0-4.655,1.911,6.448,6.448,0,0,0,.009,9.181,6.572,6.572,0,0,0,.617.539,6.427,6.427,0,0,1-1.51-4.138A6.505,6.505,0,0,1,32.751,189.7Z" transform="translate(0 -177.783)" fill="#08fff9"/>
      <path id="Path_10312" data-name="Path 10312" d="M386,100.093V99.17h-.009A5.266,5.266,0,0,1,382.8,98.1,5.271,5.271,0,0,0,386,100.093Z" transform="translate(-337.194 -92.911)" fill="#08fff9"/>
      <path id="Path_10313" data-name="Path 10313" d="M147.268,19.6a3.242,3.242,0,0,0,1.165-.151,3.109,3.109,0,0,0,2.153-2.947l0-5.134V1.992h2.468a5.375,5.375,0,0,1-.1-.992h-3.4v9.376l0,5.134a3.109,3.109,0,0,1-2.153,2.947,3.062,3.062,0,0,1-1.165.151,3.166,3.166,0,0,1-1.432-.436,3.147,3.147,0,0,0,2.468,1.432Z" transform="translate(-109.783)" fill="#08fff9"/>
      <path id="Path_10314" data-name="Path 10314" d="M60.539,43.942a6.847,6.847,0,0,0,3.78-1.829,6.321,6.321,0,0,0,1.988-4.565l-.018-7.676a8.829,8.829,0,0,0,1.988,1.122,9.209,9.209,0,0,0,3.495.686V29.19A5.472,5.472,0,0,1,68.464,27.2,5.268,5.268,0,0,1,66.392,24H63.838v9.376l0,5.134a3.122,3.122,0,0,1-2.224,2.947,3.34,3.34,0,0,1-3.753-1.277,3.089,3.089,0,0,1-1.582-2.619,3.174,3.174,0,0,1,3.245-3.15,3.453,3.453,0,0,1,1.021.155V32.012a6.9,6.9,0,0,0-4.76,1.911A6.361,6.361,0,0,0,53.8,38.51a6.259,6.259,0,0,0,1.56,4.138,6.926,6.926,0,0,0,4.159,1.363,6.686,6.686,0,0,0,1.021-.069Z" transform="translate(-22.964 -22.008)"/>
    </g>
  </g>
</svg>
