<svg xmlns="http://www.w3.org/2000/svg" width="12" height="20" viewBox="0 0 12 20">
  <g id="Layer_2" data-name="Layer 2" transform="translate(-6 -2.994)">
    <path id="facebook" d="M18,3.556A.55.55,0,0,0,17.455,3H14.727A5.24,5.24,0,0,0,9.273,8v3H6.545A.55.55,0,0,0,6,11.553v2.888A.55.55,0,0,0,6.545,15H9.273v7.442a.55.55,0,0,0,.545.555h3.273a.55.55,0,0,0,.545-.555V15h2.858a.547.547,0,0,0,.535-.411l.785-2.888a.563.563,0,0,0-.093-.481A.542.542,0,0,0,17.291,11H13.636V8a1.1,1.1,0,0,1,1.091-1h2.727A.55.55,0,0,0,18,6.444Z" fill="#fff"/>
  </g>
</svg>
