<svg id="facebook-box-line" xmlns="http://www.w3.org/2000/svg" width="26" height="26" viewBox="0 0 26 26">
  <path id="Path_10315" data-name="Path 10315" d="M0,0H26V26H0Z" fill="none"/>
  <path id="Path_10316" data-name="Path 10316" d="M16.444,22.556h6.111V5.444H5.444V22.556H14V16.444H11.556V14H14V11.978a5.337,5.337,0,0,1,.489-2.825,3.332,3.332,0,0,1,1.388-1.387A4.844,4.844,0,0,1,17.939,7.3a7.893,7.893,0,0,1,1.562.1V9.721h-.612a4.432,4.432,0,0,0-1.86.2.889.889,0,0,0-.384.384c-.147.276-.2.55-.2,1.672V14H19.5l-.611,2.444H16.444ZM4.222,3H23.778A1.222,1.222,0,0,1,25,4.222V23.778A1.222,1.222,0,0,1,23.778,25H4.222A1.222,1.222,0,0,1,3,23.778V4.222A1.222,1.222,0,0,1,4.222,3Z" transform="translate(-1 -1)" fill="#171717"/>
</svg>
