<svg id="facebook-box-line" xmlns="http://www.w3.org/2000/svg" width="24" height="24" viewBox="0 0 24 24">
  <path id="Path_10315" data-name="Path 10315" d="M0,0H24V24H0Z" fill="none"/>
  <path id="Path_10316" data-name="Path 10316" d="M15.222,20.778h5.556V5.222H5.222V20.778H13V15.222H10.778V13H13V11.162a4.852,4.852,0,0,1,.444-2.568,3.029,3.029,0,0,1,1.262-1.261,4.4,4.4,0,0,1,1.874-.423A7.175,7.175,0,0,1,18,7V9.11h-.557a4.029,4.029,0,0,0-1.691.182.808.808,0,0,0-.349.349c-.133.251-.182.5-.182,1.52V13H18l-.556,2.222H15.222ZM4.111,3H21.889A1.111,1.111,0,0,1,23,4.111V21.889A1.111,1.111,0,0,1,21.889,23H4.111A1.111,1.111,0,0,1,3,21.889V4.111A1.111,1.111,0,0,1,4.111,3Z" transform="translate(-1 -1)" fill="#fbfbff"/>
</svg>
