<svg xmlns="http://www.w3.org/2000/svg" width="119.841" height="38.841" viewBox="0 0 119.841 38.841">
  <g id="Group_15801" data-name="Group 15801" transform="translate(-3664.853 -1766.679)">
    <g id="g44" transform="translate(3664.853 1776.27)">
      <path id="path46" d="M-104.645-52.06a17.716,17.716,0,0,0-2.984-1.361,8.02,8.02,0,0,0-2.5-.429,4.414,4.414,0,0,0-1.847.336q-.727.335-.727.858,0,.933,2.611.933a10.206,10.206,0,0,1,5.932,1.492,4.78,4.78,0,0,1,2.126,4.141,6.126,6.126,0,0,1-1.25,3.712,8.77,8.77,0,0,1-3.357,2.7,10.549,10.549,0,0,1-4.607,1.007,12.318,12.318,0,0,1-4.7-.914,9.042,9.042,0,0,1-3.544-2.443l3.768-4.253a6.529,6.529,0,0,0,2.052,1.212,6.7,6.7,0,0,0,2.35.429,4.438,4.438,0,0,0,1.959-.392q.8-.392.8-.951a.662.662,0,0,0-.522-.634,5.789,5.789,0,0,0-1.753-.187,4.418,4.418,0,0,1-.672.037,7.7,7.7,0,0,1-3.525-.839,7.173,7.173,0,0,1-2.667-2.257,5.177,5.177,0,0,1-1.007-3.059,5.139,5.139,0,0,1,1.156-3.208,8.314,8.314,0,0,1,3.1-2.406,9.512,9.512,0,0,1,4.1-.914,11.813,11.813,0,0,1,4.346.858,13.93,13.93,0,0,1,3.973,2.388Z" transform="translate(119.493 59.447)" fill="#fff"/>
    </g>
    <g id="g48" transform="translate(3683.77 1776.423)">
      <path id="path50" d="M-93.471-91.368a3.906,3.906,0,0,0,1.212-2.854,3.421,3.421,0,0,0-1.082-2.593,3.8,3.8,0,0,0-2.723-1.026,3.126,3.126,0,0,0-1.9.634,4.294,4.294,0,0,0-1.324,1.585,3.986,3.986,0,0,0-.466,1.735,3.912,3.912,0,0,0,.914,2.7A3.108,3.108,0,0,0-96.4-90.156a3.99,3.99,0,0,0,2.929-1.212m8.226-12.815v28.949h-7.2l.336-10.781a9.993,9.993,0,0,1-2.854,1.38,12.065,12.065,0,0,1-3.637.522,6.481,6.481,0,0,1-3.954-1.4,10.251,10.251,0,0,1-3.022-3.731,10.973,10.973,0,0,1-1.156-4.943,10.334,10.334,0,0,1,1.287-5.111,9.765,9.765,0,0,1,3.544-3.675,9.459,9.459,0,0,1,4.98-1.361,7.587,7.587,0,0,1,2.984.615,8.175,8.175,0,0,1,2.611,1.772l.373-1.977Z" transform="translate(106.733 104.332)" fill="#fff"/>
    </g>
    <g id="g52" transform="translate(3707.559 1776.679)">
      <path id="path54" d="M-142.79-.527V19.208h-7.088V17.38a6.366,6.366,0,0,1-2.388,1.7,7.959,7.959,0,0,1-3.134.616,6.8,6.8,0,0,1-5.782-2.555q-1.94-2.555-1.865-7.48L-162.936-.6h6.9l-.037,9.886a3.45,3.45,0,0,0,.765,2.406,2.8,2.8,0,0,0,2.182.839,2.809,2.809,0,0,0,2.406-1.213,5.121,5.121,0,0,0,.877-3.078v.037l.037-8.8Z" transform="translate(163.05 0.601)" fill="#fff"/>
    </g>
    <g id="g56" transform="translate(3729.751 1776.643)">
      <path id="path58" d="M-86.241-94.654a4.259,4.259,0,0,0,1.418-1.585,4.447,4.447,0,0,0,.522-2.108,3.541,3.541,0,0,0-.989-2.556,3.3,3.3,0,0,0-2.481-1.026,4.065,4.065,0,0,0-2.873,1.156,3.66,3.66,0,0,0-1.231,2.761,3.747,3.747,0,0,0,.541,1.9,4.292,4.292,0,0,0,1.418,1.492,3.318,3.318,0,0,0,1.809.559,3.315,3.315,0,0,0,1.865-.6m2.462,6.6-.037-1.753a7.748,7.748,0,0,1-2.5,1.38,9.182,9.182,0,0,1-3.059.522,8.167,8.167,0,0,1-4.551-1.362,9.773,9.773,0,0,1-3.32-3.675,10.627,10.627,0,0,1-1.231-5.074,10.451,10.451,0,0,1,1.268-5.111,9.43,9.43,0,0,1,3.488-3.637,9.4,9.4,0,0,1,4.906-1.324,7.72,7.72,0,0,1,2.742.485A5.255,5.255,0,0,1-84-106.256v-1.6h6.193l.858,19.809Z" transform="translate(98.477 108.084)" fill="#fff"/>
    </g>
    <g id="g60" transform="translate(3752.575 1766.679)">
      <path id="path62" d="M-88.344-164.988a4.563,4.563,0,0,0,1.511-1.529,3.725,3.725,0,0,0,.578-1.959,3.705,3.705,0,0,0-1.212-2.742,3.924,3.924,0,0,0-2.816-1.175,3.716,3.716,0,0,0-2.7,1.175,3.8,3.8,0,0,0-1.175,2.779,3.81,3.81,0,0,0,.541,1.94,4.328,4.328,0,0,0,1.455,1.511,3.474,3.474,0,0,0,1.884.578,3.628,3.628,0,0,0,1.94-.578m9.438-22.812v29.546H-86.18v-2.089a9.078,9.078,0,0,1-2.91,1.641,10.359,10.359,0,0,1-3.544.634,6.792,6.792,0,0,1-4.1-1.4,9.692,9.692,0,0,1-3.022-3.787,11.974,11.974,0,0,1-1.119-5.148,10.938,10.938,0,0,1,1.156-4.887,10.831,10.831,0,0,1,3.04-3.824,6.509,6.509,0,0,1,3.936-1.511,9.967,9.967,0,0,1,6.454,1.791l-.075-11.565Z" transform="translate(100.878 188.397)" fill="#fff"/>
    </g>
    <g id="g64" transform="translate(3776.487 1788.144)">
      <path id="path66" d="M-8.415-51.8a4.385,4.385,0,0,1-1.194-3.059,4.049,4.049,0,0,1,.616-2.182,4.451,4.451,0,0,1,1.6-1.548,4.211,4.211,0,0,1,2.108-.56A3.77,3.77,0,0,1-2.54-58.027,4.046,4.046,0,0,1-1.4-55.006,4.712,4.712,0,0,1-2.54-51.8a3.666,3.666,0,0,1-2.891,1.306A3.873,3.873,0,0,1-8.415-51.8" transform="translate(9.609 59.147)" fill="#fff"/>
    </g>
  </g>
</svg>
