<svg xmlns="http://www.w3.org/2000/svg" width="22.041" height="21.04" viewBox="0 0 22.041 21.04">
  <g id="Heart" transform="translate(-1.479 -1.96)">
    <path id="Path_41" data-name="Path 41" d="M12.248,21.846A36.693,36.693,0,0,1,5.91,16.9a12.662,12.662,0,0,1-3.017-4.824C1.76,8.542,3.083,4.5,6.785,3.3a6.279,6.279,0,0,1,5.711.965A6.288,6.288,0,0,1,18.206,3.3c3.7,1.2,5.035,5.239,3.9,8.769A12.661,12.661,0,0,1,19.091,16.9a36.692,36.692,0,0,1-6.339,4.949L12.505,22Z" transform="translate(0 0)" fill="none" stroke="#171717" stroke-linecap="round" stroke-linejoin="round" stroke-width="2"/>
    <path id="Path_42" data-name="Path 42" d="M15.739,7.053A2.928,2.928,0,0,1,17.757,9.6" transform="translate(0.697 0.227)" fill="none" stroke="#171717" stroke-linecap="round" stroke-linejoin="round" stroke-width="2"/>
  </g>
</svg>
