<svg xmlns="http://www.w3.org/2000/svg" width="24" height="24" viewBox="0 0 24 24">
  <g id="Group_64" data-name="Group 64" transform="translate(-1708 -2533)">
    <g id="Group_63" data-name="Group 63">
      <rect id="Rectangle_133" data-name="Rectangle 133" width="24" height="24" transform="translate(1708 2533)" fill="rgba(255,255,255,0)"/>
      <g id="instagram" transform="translate(1709 2534)">
        <path id="Path_46" data-name="Path 46" d="M11.545,7a4.545,4.545,0,1,0,4.545,4.545A4.545,4.545,0,0,0,11.545,7ZM8.818,11.545a2.727,2.727,0,1,0,2.727-2.727A2.727,2.727,0,0,0,8.818,11.545Z" transform="translate(-0.545 -0.545)" fill="#fff" fill-rule="evenodd"/>
        <path id="Path_47" data-name="Path 47" d="M17.909,5a.909.909,0,1,0,.909.909A.909.909,0,0,0,17.909,5Z" transform="translate(-1.455 -0.364)" fill="#fff"/>
        <path id="Path_48" data-name="Path 48" d="M4.636,1A3.636,3.636,0,0,0,1,4.636V17.364A3.636,3.636,0,0,0,4.636,21H17.364A3.636,3.636,0,0,0,21,17.364V4.636A3.636,3.636,0,0,0,17.364,1ZM17.364,2.818H4.636A1.818,1.818,0,0,0,2.818,4.636V17.364a1.818,1.818,0,0,0,1.818,1.818H17.364a1.818,1.818,0,0,0,1.818-1.818V4.636A1.818,1.818,0,0,0,17.364,2.818Z" fill="#fff" fill-rule="evenodd"/>
      </g>
    </g>
  </g>
</svg>
