<svg xmlns="http://www.w3.org/2000/svg" width="20" height="20" viewBox="0 0 20 20">
  <g id="instagram" transform="translate(-1 -1)">
    <path id="Path_46" data-name="Path 46" d="M11.545,7a4.545,4.545,0,1,0,4.545,4.545A4.545,4.545,0,0,0,11.545,7ZM8.818,11.545a2.727,2.727,0,1,0,2.727-2.727A2.727,2.727,0,0,0,8.818,11.545Z" transform="translate(-0.545 -0.545)" fill="#fff" fill-rule="evenodd"/>
    <path id="Path_47" data-name="Path 47" d="M17.909,5a.909.909,0,1,0,.909.909A.909.909,0,0,0,17.909,5Z" transform="translate(-1.455 -0.364)" fill="#fff"/>
    <path id="Path_48" data-name="Path 48" d="M4.636,1A3.636,3.636,0,0,0,1,4.636V17.364A3.636,3.636,0,0,0,4.636,21H17.364A3.636,3.636,0,0,0,21,17.364V4.636A3.636,3.636,0,0,0,17.364,1ZM17.364,2.818H4.636A1.818,1.818,0,0,0,2.818,4.636V17.364a1.818,1.818,0,0,0,1.818,1.818H17.364a1.818,1.818,0,0,0,1.818-1.818V4.636A1.818,1.818,0,0,0,17.364,2.818Z" fill="#fff" fill-rule="evenodd"/>
  </g>
</svg>
