<svg xmlns="http://www.w3.org/2000/svg" width="24" height="24" viewBox="0 0 24 24">
  <g id="Group_15425" data-name="Group 15425" transform="translate(2 2)">
    <rect id="Rectangle_572" data-name="Rectangle 572" width="24" height="24" transform="translate(-2 -2)" fill="rgba(255,255,255,0)"/>
    <path id="location-arrow" d="M21.151,2.86a2.891,2.891,0,0,0-3-.71L4,6.878a2.9,2.9,0,0,0-.12,5.468l5.24,2h0a.93.93,0,0,1,.53.52l2,5.248a2.87,2.87,0,0,0,2.71,1.879h.07a2.88,2.88,0,0,0,2.69-2l4.73-14.166A2.888,2.888,0,0,0,21.151,2.86ZM20,5.2l-4.78,14.176a.88.88,0,0,1-.84.62.92.92,0,0,1-.87-.58l-2-5.248a2.91,2.91,0,0,0-1.67-1.679l-5.25-2A.9.9,0,0,1,4,9.618a.88.88,0,0,1,.62-.84L18.8,4.049A.91.91,0,0,1,20,5.2Z" transform="translate(-2.002 -1.994)" fill="#171717"/>
  </g>
</svg>
