<svg xmlns="http://www.w3.org/2000/svg" width="18.018" height="22" viewBox="0 0 18.018 22">
  <g id="Profile" transform="translate(-3 -1.5)">
    <path id="Path_45" data-name="Path 45" d="M5.09,0a5.032,5.032,0,0,1,5.09,4.971A5.032,5.032,0,0,1,5.09,9.942,5.032,5.032,0,0,1,0,4.971,5.032,5.032,0,0,1,5.09,0Z" transform="translate(6.914 2.5)" fill="none" stroke="#171717" stroke-linecap="round" stroke-width="2"/>
    <path id="Path_44" data-name="Path 44" d="M4,18.823a2.276,2.276,0,0,1,.232-1.01c.483-.952,1.846-1.457,2.978-1.686a17.972,17.972,0,0,1,2.475-.343,26.844,26.844,0,0,1,4.631,0,18.187,18.187,0,0,1,2.475.343c1.131.229,2.494.686,2.978,1.686a2.33,2.33,0,0,1,0,2.029c-.483,1-1.847,1.457-2.978,1.676a16.84,16.84,0,0,1-2.475.352,27.687,27.687,0,0,1-3.77.057,4.351,4.351,0,0,1-.86-.057,16.513,16.513,0,0,1-2.465-.352c-1.141-.219-2.494-.676-2.987-1.676A2.342,2.342,0,0,1,4,18.823Z" transform="translate(0 0.533)" fill="none" stroke="#171717" stroke-linecap="round" stroke-linejoin="round" stroke-width="2"/>
  </g>
</svg>
